<?xml version="1.0" encoding="iso-8859-1"?>
<!-- Uploaded to: SVG Repo, www.svgrepo.com, Generator: SVG Repo Mixer Tools -->
<!DOCTYPE svg PUBLIC "-//W3C//DTD SVG 1.1//EN" "http://www.w3.org/Graphics/SVG/1.1/DTD/svg11.dtd">
<svg  version="1.1" id="Capa_1" xmlns="http://www.w3.org/2000/svg" xmlns:xlink="http://www.w3.org/1999/xlink" 
	 viewBox="0 0 60 60" xml:space="preserve">
<path d="M60,18h-4V6H46v12h-1v-8H31v8h-1V8H18v10h-3.727c0.024-0.081,0.055-0.158,0.072-0.242c0.192-0.968-0.124-1.944-0.845-2.612
	c-0.805-0.744-1.319-1.548-1.529-2.389L11.781,12H10V9V8.858C11.72,8.411,13,6.859,13,5V0h-3H8H5v5c0,1.859,1.28,3.411,3,3.858V9v3
	H6.619L6.43,12.758c-0.21,0.84-0.724,1.644-1.529,2.388c-0.721,0.668-1.038,1.645-0.845,2.611C4.072,17.841,4.103,17.919,4.127,18H0
	v7h2v35h18h20h18V25h2V18z M10,2h1v3c0,0.739-0.403,1.386-1,1.731V2z M7,5V2h1v4.731C7.403,6.386,7,5.739,7,5z M36,54h-5.979
	c0.441,0,0.875-0.048,1.304-0.12c0.06-0.01,0.121-0.018,0.181-0.029c0.167-0.032,0.332-0.072,0.496-0.115
	c0.09-0.023,0.18-0.047,0.27-0.074c0.149-0.044,0.296-0.092,0.441-0.145c0.098-0.036,0.195-0.075,0.292-0.114
	c0.141-0.058,0.282-0.116,0.42-0.182c0.082-0.039,0.162-0.084,0.243-0.126c0.574-0.298,1.115-0.662,1.607-1.096H36V54z M24,52h0.767
	c0.034,0.03,0.07,0.055,0.104,0.084c0.439,0.375,0.914,0.698,1.417,0.967c0.105,0.057,0.209,0.115,0.317,0.167
	c0.123,0.059,0.25,0.11,0.375,0.162c0.114,0.047,0.228,0.095,0.344,0.137c0.134,0.049,0.269,0.092,0.406,0.134
	c0.106,0.032,0.212,0.061,0.32,0.089c0.152,0.039,0.304,0.075,0.458,0.106c0.08,0.015,0.161,0.027,0.242,0.04
	C29.168,53.954,29.591,54,30.02,54H24V52z M49,58h-9v-4h-2v-4h-1.084c1.726-2.992,1.398-6.907-0.981-9.668l-1.726-2.003
	c-0.26-0.303-0.677-0.421-1.055-0.303c-0.141,0.044-0.268,0.117-0.373,0.213c-0.411-1.184-0.979-2.359-1.7-3.521
	c-0.027-0.044-0.058-0.086-0.092-0.126l-0.211-0.245C30.587,34.127,30.311,34,30.02,34h0c-0.291,0-0.567,0.127-0.757,0.348
	l-1.685,1.956c-1.324,1.535-2.213,3.372-2.616,5.3c-0.145-0.284-0.418-0.487-0.742-0.536c-0.402-0.064-0.792,0.123-1.002,0.465
	c-1.622,2.638-1.612,5.879-0.091,8.468H22v4h-2v4h-9V37.535l3-2V33h32v2.535l3,2V58z M56,58h-5V36.465l-3-2V31H12v3.465l-3,2V58H4
	V25h1v2c0,0.553,0.448,1,1,1s1-0.447,1-1v-2h1v2c0,0.553,0.448,1,1,1s1-0.447,1-1v-2h1v2c0,0.553,0.448,1,1,1s1-0.447,1-1v-2h1v2
	c0,0.553,0.448,1,1,1s1-0.447,1-1v-2h1v2c0,0.553,0.448,1,1,1s1-0.447,1-1v-2h1v2c0,0.553,0.448,1,1,1s1-0.447,1-1v-2h1v2
	c0,0.553,0.448,1,1,1s1-0.447,1-1v-2h1v2c0,0.553,0.448,1,1,1s1-0.447,1-1v-2h1v2c0,0.553,0.448,1,1,1s1-0.447,1-1v-2h1v2
	c0,0.553,0.448,1,1,1s1-0.447,1-1v-2h1v2c0,0.553,0.448,1,1,1s1-0.447,1-1v-2h1v2c0,0.553,0.448,1,1,1s1-0.447,1-1v-2h1v2
	c0,0.553,0.448,1,1,1s1-0.447,1-1v-2h1v2c0,0.553,0.448,1,1,1s1-0.447,1-1v-2h1v2c0,0.553,0.448,1,1,1s1-0.447,1-1v-2h1v2
	c0,0.553,0.448,1,1,1s1-0.447,1-1v-2h1v2c0,0.553,0.448,1,1,1s1-0.447,1-1v-2h1V58z M58,23H2v-3h4.879h4.642H18h12h1h14h1h10h2V23z"
	/>
</svg>