<?xml version="1.0" encoding="UTF-8"?><svg id="Layer_1" xmlns="http://www.w3.org/2000/svg" viewBox="0 0 100 100"><defs><style>.cls-1{stroke-dasharray:0 0 1 1;}.cls-1,.cls-2{fill:none;stroke:#000;stroke-miterlimit:10;stroke-width:.5px;}</style></defs><path d="M99.5,.5V99.5H.5V.5H99.5m.5-.5H0V100H100V0h0Z"/><g><g><line class="cls-2" x1="75" x2="75" y2=".5"/><line class="cls-1" x1="75" y1="1.5" x2="75" y2="99"/><line class="cls-2" x1="75" y1="99.5" x2="75" y2="100"/></g><g><line class="cls-2" x1="50" x2="50" y2=".5"/><line class="cls-1" x1="50" y1="1.5" x2="50" y2="99"/><line class="cls-2" x1="50" y1="99.5" x2="50" y2="100"/></g><g><line class="cls-2" x1="25" x2="25" y2=".5"/><line class="cls-1" x1="25" y1="1.5" x2="25" y2="99"/><line class="cls-2" x1="25" y1="99.5" x2="25" y2="100"/></g><g><line class="cls-2" y1="25" x2=".5" y2="25"/><line class="cls-1" x1="1.5" y1="25" x2="99" y2="25"/><line class="cls-2" x1="99.5" y1="25" x2="100" y2="25"/></g><g><line class="cls-2" y1="50" x2=".5" y2="50"/><line class="cls-1" x1="1.5" y1="50" x2="99" y2="50"/><line class="cls-2" x1="99.5" y1="50" x2="100" y2="50"/></g><g><line class="cls-2" y1="75" x2=".5" y2="75"/><line class="cls-1" x1="1.5" y1="75" x2="99" y2="75"/><line class="cls-2" x1="99.5" y1="75" x2="100" y2="75"/></g></g></svg>