<?xml version="1.0" encoding="UTF-8"?><svg id="Calque_2" xmlns="http://www.w3.org/2000/svg" viewBox="0 0 579.11 415.13"><defs><style>.cls-1{stroke-width:0px;}</style></defs><g id="Calque_2-2"><path class="cls-1" d="M151.45,164.91l61.57,1.54-13.93-41.97-58.18-2.42,10.54,42.85ZM209.47,163.81l-56.01-1.4-9.26-37.67,53.04,2.2,12.24,36.87Z"/><path class="cls-1" d="M154.79,160.75l52.3,1.31-11.11-33.47-49.61-2.06,8.42,34.22ZM203.54,159.43l-46.74-1.17-7.14-29.04,44.47,1.85,9.42,28.36Z"/><path class="cls-1" d="M468.73,175.72l-20.25-39.14-37.75-1.5,19.61,39.57,38.4,1.07ZM446.9,139.06l17.59,33.99-32.55-.91-17.02-34.35,31.99,1.27Z"/><path class="cls-1" d="M461.66,171.28l-15.81-30.56-28.15-1.12,15.3,30.88,28.66.8ZM444.27,143.2l13.15,25.42-22.82-.64-12.72-25.67,22.39.89Z"/><path class="cls-1" d="M331.6,324.82v5.76h10.85v-5.76h-10.85ZM340.15,328.29h-6.26v-1.17h6.26v1.17Z"/><path class="cls-1" d="M520.69,279.21h-67.14v66.15h71.81v-2.54h-4.67v-63.61ZM513.85,281.76l-1,.48h-56.76v-.48h57.76ZM456.09,288.36h50.59v48.61h-50.59v-48.61ZM456.09,339.51h53.13v-53.69h-53.13v-1.03h55.78v58.04h-55.78v-3.31ZM514.42,342.82v-58.51l3.73-1.8v60.31h-3.73Z"/><path class="cls-1" d="M577.69,262.16v-4.66h1.42s-120.49-196.48-120.49-196.48l-.35-.57L104.39,42.38V13.17l3.3.21V2.42L70.02,0l-8.54,7.2v9.99l2.09-1.55v24.65l-33.65-1.72-.05-.31-.04.3h-.14s-.08,1.65-.08,1.65L.05,252.86l-.05.37,1.69,3.6-.66,108.94v.66s67.55,48.7,67.55,48.7v-1.3l62.29-4.21v-13.91l43.97-1.65h0s36.29-1.49,36.29-1.49h0s35.71-.75,35.71-.75l5.73,6.45v.83l54.95-1.73-.14-10.89,55.9-1.84,4.98,4.37.51-.58,20.3-.5,14.59,4.2,170.55-1.98,1.3-.02-3.99-124.21,2.94-3.78h3.23ZM101.85,42.25l-30.13-1.54V11.14l30.13,1.88v29.23ZM64.02,8.38l6.86-5.78,34.27,2.2v5.87l-36.11-2.25-5.01,3.72v-3.76ZM66.11,13.76l3.07-2.28v29.1l-3.07-.16V13.76ZM456.8,62.93l117.75,192.02-506.2-2.62L30.38,41.14l426.43,21.79ZM562.38,260.89c.09,1.11-.04,2.21-.37,3.26l-493.42-4.52v-4.76l495.02,2.56-1.51.13.28,3.34ZM561.72,387.76l-156.64,1.82-2.2-124.6,157.78,1.45v.02c-1.22,1.54-1.87,3.46-1.82,5.42l2.88,115.89ZM66.04,259.63h-1.31S30.51,58.53,30.51,58.53L9.1,206.23,30.18,54.43l35.86,199.27v5.93ZM3.58,365.14l.66-108.57v-.29s-.05-.12-.05-.12L30.69,73.27l31.94,187.72.16.96,3.24-.03v148.24L3.58,365.14ZM167.25,385.36v-113.75h5.05v118.36l-5.05-4.61ZM130.87,388.47l34.64-1.26,4.91,4.49-39.55,1.48v-4.71ZM130.87,385.92v-114.31h33.84v113.08l-33.84,1.23ZM174.84,271.61h34.25v118.51l-34.25,1.41v-119.92ZM245.24,271.61l.76,109.85-34.35.1v-109.96h33.6ZM211.64,384.11l34.37-.1.04,5.3-34.41.71v-5.9ZM248.6,389.97l-.81-118.36h4.79v122.84l-3.98-4.48ZM305.87,271.62l38.58.46.15,110.63-37.26,1.23-1.47-112.32ZM366.94,272.36l1.04,113.03-2.97-2.6v-110.45l1.93.02ZM362.46,382.13l-.97.03-.15-109.87h1.12v109.84ZM358.8,272.26l.15,109.99-7.24.24-.15-110.31,7.24.09ZM349.02,272.14l.15,110.43-2.02.07-.15-110.52,2.02.02ZM369.48,272.39l17.5.21.96,112.82-17.42.43-1.04-113.46ZM389.51,270.09l-86.21-1.04,1.65,125.87-49.83,1.57v-127.42h-126.79v138.19l-59.74,4.04v-149.37l331.75,3.04,2.19,124.21-12.04-3.47-.99-115.61ZM567.23,387.7l-2.88-115.97c-.02-.68.2-1.34.62-1.87l1.21-1.53.12-.22c.28-.53.52-1.07.73-1.62l1.98.02,3.89,121.12-5.65.07ZM569.95,264.22l-2.29-.02c.24-1.23.31-2.5.2-3.77l-.25-2.98,7.78.04v2.37h-2.05l-3.39,4.36Z"/></g></svg>