<?xml version="1.0" encoding="UTF-8"?><svg id="Calque_2" xmlns="http://www.w3.org/2000/svg" viewBox="0 0 526.03 394.17"><defs><style>.cls-1{stroke-width:0px;}</style></defs><g id="Calque_2-2"><path class="cls-1" d="M517.96,248.84c-4.7-.66-10.93-1.02-17.55-1.02s-12.86.36-17.55,1.02c-7.1,1-8.08,2.24-8.08,3.44v7.62c0,1.2.98,2.44,8.08,3.44,3.49.49,7.82.82,12.54.95-.15,5.42-1.55,7.63-2.79,9.59-.82,1.29-1.6,2.51-1.77,4.33-.76.39-1.28,1.18-1.28,2.09v9.35h-1.82l-1.98-5.4-.08.03-12.94-1.28-1.66,3.63h-4.5l-1.69-5.84h.11s6.21-228.23,6.21-228.23c2.03-.61,3.61-3.13,4.62-7.39,1.68-7.12,1.42-19.26-2.77-21.5-.11-.08-.36-.24-.69-.43-.16-3.12-2.02-5.98-4.85-7.35-11.71-5.71-39.97-18.63-49.5-15.36-7.9,2.71-14.34,6.52-17.48,8.55-.27.17-.52.36-.75.57l-32.66-4.24c-1.52-.2-3.01.03-4.36.57l-.09-.14-6.32,3.85c-1.17.72-2.24,1.56-3.18,2.49-4.57-1.27-26.73-7.17-32.33-3.71-.84.52-1.6,1.09-2.29,1.73-2.35,1.69-5.24,4.26-7.54,6.4l-20.35-3.02c-4.17-.62-8.4.61-11.59,3.36-.8.69-1.52,1.46-2.14,2.29l-1.81,1.06.11-1.38-25.61-2.12c-3.7-.31-7.37.85-10.23,3.18-.56.29-1.69.91-2.98,1.74l-23.92-1.27c-2.91-.17-5.79.86-7.94,2.82-.86.17-1.9.51-2.93,1.08l-17.96-.66c-2.38-.09-4.62.32-6.58,1.17-.59.12-2.96.67-5.27,2.04h-16.19c-3.47,0-6.76,1.01-9.57,2.9h-16.89c-3.93,0-7.64,1.23-10.74,3.5h-18.45c-3.19,0-6.21.93-8.79,2.65l-15.12.43c-2.13.06-4.17.58-6.01,1.51h-16.55c-2.66,0-5.19.78-7.33,2.24h-13.17c-2.57,0-5.01.71-7.12,2.05l-12.66-.28c-3.57-.08-7.05,1.34-9.54,3.9C1.17,48.35-.16,51.86.01,55.43c1.11,23.05,3.35,67.79,5.83,108.44,4.71,77.19,6.75,80.72,7.41,81.89,4.48,7.78,5.7,26.6,3.63,31.58-1.39,3.34-3.97,9.55,1.35,12.18.86.43,1.97.59,3.19.59,4.2,0,9.65-2,10.42-2.3l1.1-.41-.32-1.12c-1-3.46-3.31-13.28-2-17.01,1.61-4.61,7.74-17.33,8.32-18.54,3.01,1.37,6.52,1.95,10.04,1.95,1.82,0,3.64-.16,5.4-.43,3.46,3.3,8.38,5.09,13.59,5.09,2.19,0,4.43-.32,6.63-.97,1.91,2.77,4.95,5.03,9.55,5.03.04,0,.08,0,.12,0,7.24-.06,11.56-1.14,13.5-1.79.61,1.25,1.35,2.44,2.22,3.53,2.37,2.95,5.02,4.44,7.9,4.44,5.48,0,11.53-1.71,14.12-2.53.63,1.81,1.63,3.45,2.94,4.69,2.17,2.07,5.07,3.12,8.62,3.12.29,0,.59,0,.9-.02,6.82-.32,11.3-2.16,13.35-3.21.35.69.75,1.36,1.2,1.99,2.33,3.31,5.51,5.24,9.2,5.61.78.08,1.55.11,2.3.11,6.15,0,10.97-2.4,13.06-3.64,2.14,3.06,4.84,4.98,6.45,6.06,2.43,3.06,5.23,5.1,7.74,5.1,7.24,0,11.99-3.64,14.04-5.62,1.09,1.45,2.7,3.13,4.76,4.09,1.05,2.36,2.99,5.65,6.1,7.3,1.29.68,2.66,1.02,4.09,1.02,1.09,0,2.22-.2,3.38-.6,3.93-1.35,7.15-3.06,9.59-4.62,1.54,1.88,5.97,6.67,10.92,6.67.93,0,1.88-.17,2.83-.56l-.05-.12c.11.08.22.17.33.25,2.36,1.65,4.83,2.48,7.33,2.48,3.13,0,6.39-.95,9.29-2.17,1.73,1.99,6.46,6.7,12.58,6.7,1.47,0,3.01-.27,4.61-.91l-.19-.46c1.57.7,3.2,1.21,4.83,1.5.86.31,1.79.5,2.83.54.16,0,.32,0,.49,0,2.98,0,6.48-.81,9.75-1.85,1.32,2.22,4.66,7.18,8.49,7.88,1.02.19,2.12.26,3.2.26,2.8,0,5.51-.48,6.66-.72.43.36.87.7,1.33,1.03.46.33.93.64,1.4.93.91.57,1.92.96,2.99,1.23.04.03.07.06.11.09l.04-.05c1.14.27,2.35.39,3.6.39,2.87,0,5.94-.63,8.79-1.49,1.78,2.36,6.42,8,10.24,8,.22,0,.44-.02.65-.06,3.29-.61,9.42-3,11.53-3.85,3.16,2.72,6.66,5.26,9.46,6.08.55.16,1.17.24,1.82.24,2.18,0,4.84-.82,7.5-1.98,1.05,2.54,2.76,4.29,5.08,5.2,1.29.51,2.68.71,4.09.71,4.25,0,8.66-1.87,10.95-3.01,2.26,10.57,4.36,24.97,2.05,33.25-1.61,5.81-2.94,14.19-3.47,21.86-.61,8.9,0,14,1.8,15.16,2.2,1.41,9.65,4.52,14.31,4.52,1.06,0,1.97-.16,2.65-.54,3.08-1.71,6.06-5.01,6.19-5.15l.25-.28v-.37c.01-.33.71-33.13,4.94-49.63,1.18-4.6,4.8-8.2,9.46-9.41l3.51-.9c1.23-.01,2.42-.2,3.57-.53l-.7,21.11.86.15c.95.17,5.7,1.93,8.46,2.99l.36.14,11.37-4.24.65-36.6,5.21-3.97h0s2.1-2.78,2.1-2.78h2.07l1.25,2.8,13.14,1.03-.6-2.57h6.87v10.71c0,1.81,1.35,3.31,3.1,3.56v58.5c0,2.16,1.76,3.92,3.92,3.92h6.5c2.16,0,3.92-1.76,3.92-3.92v-58.5c1.75-.25,3.1-1.75,3.1-3.56v-35.83c0-1.06-.71-1.96-1.68-2.25h.06c0-1.8-.84-3.16-1.72-4.6-1.21-1.97-2.69-4.39-2.87-9.12,5.31-.1,10.22-.45,14.08-.99,7.1-1,8.08-2.24,8.08-3.44v-7.62c0-1.2-.98-2.44-8.08-3.44ZM485.6,289.66h-1.56l.72-2.3.84,2.3ZM473.93,285.12l9.17.91-3.68,11.75-10.85-.97,5.36-11.69ZM463.41,282.94l1.07,3.69h-2.11l1.04-3.69ZM463.42,64.5c-.05,2.19-2.5,5.91-5.75,8.65-1.98,1.66-3.5,2.27-4.09,2.12h-.05c-1.51-.39-4.65-1.17-7.49-5.21-3.67-5.21-5.53-13.92-5.53-25.88,0-6.23.36-11.65,1.07-16.09.68-4.25,3.42-7.93,7.31-9.83,3.87-1.89,8.22-1.79,11.94.26,1.87,1.03,2.92,2.2,3.12,3.47-2.54.21-5.36,1.2-6.26,4.4-.64,2.27-5.88,22.55,5.73,38.1ZM463.6,61.21c-9.14-14.46-4.55-32.19-3.97-34.27.68-2.42,3.27-2.96,5.41-2.97-.82,1.1-1.36,2.67-1.61,4.72-.94,7.67-.75,18.08,2.89,22.19.4.45.83.82,1.29,1.1-.45.94-.9,1.81-1.34,2.65-1.17,2.26-2.23,4.3-2.66,6.57ZM473.84,44.7c-.87,3.7-2.27,5.99-3.65,5.99-.91,0-1.68-.38-2.37-1.15-2.97-3.36-3.33-13.04-2.4-20.61.21-1.75.78-3.96,2.23-4.59.09-.04.18-.07.28-.1.08.02.13.03.13.03v-.06c.2-.04.39-.06.58-.06,1.3,0,2.71.8,3.25,1.19l.15.09c2.65,1.33,3.6,11.59,1.79,19.28ZM357.53,11.93c-.02.07-.04.13-.05.19-.52,2.39-.79,5.24-.79,8.45,0,12.2-1.96,279.63-1.98,282.33v.06s0,.06,0,.06c.02.19.32,3.55,1.14,7.09-1.09-.94-2.24-1.99-3.43-3.14-1.8-1.73-2.83-4.16-2.83-6.66,0-32.16,1-236.08,1.2-276.63,0-.21,0-.41.02-.62.22-4.5,2.73-8.66,6.72-11.15ZM274.04,287.57c.04.28.67,3.97,2.68,7.32-3.85-2.27-6.85-5.93-6.85-10.16,0-6.19-.71-192.33-.93-249.24-.02-4.57,2.12-8.87,5.67-11.64-.38,1.31-.58,2.67-.58,4.06v259.45l.02.21ZM236.43,278.44c.02,1.83.31,3.61.84,5.29-1.92-2.99-2.98-6.54-3.01-10.26-1.06-110.47-2.18-240.66-1.85-244,.13-.97,1.18-2.19,2.61-3.4-.59,1.61-.9,3.32-.88,5.07l2.29,247.29ZM229.7,64.83l.08-.02c.3,49.91,1.13,139.96,1.6,189.64l-.22-.07c-.07.19-.72,1.9-3.13,1.9-2.91,0-3.34-3.01-3.34-4.81l-1.85-184.12c0-1.25,1.38-3.49,4.12-3.49,2.34,0,2.75.99,2.76,1.03-.02-.04-.02-.06-.02-.06ZM199.69,251.75c-5.33-.58-6.43-4.96-6.43-12.16,0-2.78-.59-31.26-1.28-64.23-.91-43.72-1.95-93.27-1.95-99.63,0-9.75,2.58-10.31,4.47-10.72l.26-.06c.98-.22,1.74.61,2.43,1.49.05.06.09.11.13.16.62,49.99,1.8,141.57,2.36,185.14ZM36.71,249.5c-.27.57-6.75,13.96-8.48,18.91-1.56,4.45.72,13.97,1.64,17.41-3.44,1.17-8.56,2.37-10.5,1.41-2.02-1-2.69-2.78-.13-8.93,2.3-5.53,1.26-25.07-3.78-33.82-3.04-5.28-8.66-101.18-12.91-189.18-.14-2.91.9-5.65,2.93-7.74,2.03-2.08,4.75-3.19,7.66-3.13l9.82.22c-2.32,2.62-3.51,5.98-3.34,9.5.37,7.59.81,16.6,1.31,26.49-1.74,1.15-4.09,4.11-4.18,11.78-.1,8.21,2.97,62.92,4.81,95.6.64,11.43,1.11,19.68,1.16,21.06.17,4.72,2.15,7.13,6.02,7.37,1.11,14.95,2.09,25.06,2.82,26.81,1.16,2.78,3.02,4.84,5.3,6.31l-.16-.08ZM28.6,214.44c-2.23-.2-3.71-1.34-3.86-5.42-.05-1.39-.52-9.66-1.16-21.1-1.72-30.52-4.91-87.32-4.81-95.47.06-5.26,1.22-7.89,2.3-9.21,2.1,41.55,5.08,97.57,7.53,131.2ZM33.92,242.3c-2.15-5.15-7.48-100.63-11.75-188.26-.15-2.99.91-5.83,2.98-8,2.06-2.17,4.85-3.36,7.85-3.36h10.4c-2.04,2.48-3.09,5.58-2.96,8.83.31,7.62.73,17.49,1.22,28.78-2.02.95-5.24,3.83-5.34,12.56-.1,8.53,3.56,65.3,5.74,99.22.76,11.85,1.32,20.42,1.38,21.84.19,4.44,2.06,6.93,5.69,7.57,1.7,22.89,2.72,27.24,3.32,28.46-7.45.81-15.67-.79-18.52-7.63ZM45.7,165.32c1.29,24.29,2.36,41.57,3.25,53.87-1.93-.49-3.17-1.89-3.31-5.39-.06-1.45-.61-10.02-1.38-21.89-2.04-31.67-5.84-90.61-5.74-99.05.08-6.35,1.85-8.99,3.24-10.08,1.06,24.17,2.44,54.3,3.94,82.54ZM54.74,248.84c-2.43-4.34-6.94-79.97-11.78-197.45-.12-2.89.92-5.64,2.92-7.72,2.01-2.09,4.7-3.24,7.6-3.24h12.99c-.18.18-.36.36-.53.54-2.64,2.85-3.98,6.55-3.79,10.43l1.32,26.78c-2.02.98-5.32,4-5.44,13.37-.11,9.08,3.51,69.53,5.67,105.64.75,12.61,1.3,21.73,1.36,23.24.19,4.76,2.09,7.41,5.81,8.05l1,20.4v.07c.15,1.43.6,3.29,1.44,5.12-7.18,1.93-14.66-.12-18.58-5.23ZM70.76,226.15c-1.99-.49-3.27-1.97-3.42-5.79-.06-1.54-.61-10.66-1.36-23.29-2.02-33.72-5.77-96.49-5.66-105.48.08-6.76,1.9-9.59,3.29-10.76l7.15,145.32ZM84.25,258.83s-.06,0-.09,0c-8.44,0-9.67-9.41-9.74-10.11l-9.72-197.44c-.16-3.19.95-6.24,3.12-8.58,2.17-2.34,5.12-3.68,8.31-3.78l12.03-.34c-2.84,3.17-4.27,7.23-4.02,11.49l1.45,24.95c-1.9.74-5.82,3.56-5.82,14.23,0,9.46,4.36,72.4,6.96,110.01.91,13.15,1.57,22.66,1.65,24.24.25,5.12,2.33,7.85,6.32,8.34l1.18,20.32c.1,1.76.42,3.45.95,5.06-1.78.57-5.82,1.56-12.57,1.61ZM94.56,229.48c-2.2-.38-3.65-1.85-3.86-6.1-.08-1.6-.74-11.12-1.65-24.29-2.43-35.11-6.95-100.47-6.95-109.85,0-7.94,2.25-10.72,3.64-11.68l8.82,151.91ZM107.9,265.01c-2.07,0-4.06-1.17-5.92-3.49-2.13-2.65-3.36-5.94-3.57-9.51l-11.74-202.08c-.21-3.7,1.07-7.22,3.61-9.91s5.98-4.18,9.69-4.18h15.65c-3.24,3.6-4.89,8.21-4.65,13.07.29,5.83.66,13.25,1.08,21.8-2.17.82-6.38,3.75-6.38,14.25,0,13.04,7,139.54,7.3,144.92.29,5.24,2.69,8,7.3,8.43.63,13.15,1.01,21.57,1.01,22.38,0,.63.05,1.25.13,1.87-2.35.75-8.32,2.46-13.52,2.46ZM120.15,235.82c-2.69-.31-4.46-1.7-4.71-6.08-.07-1.32-7.3-131.81-7.3-144.78,0-7.86,2.45-10.62,4.04-11.58,2.3,46.43,6.09,123.13,7.97,162.45ZM134.35,270.28c-3.24.16-5.81-.65-7.64-2.4-2.68-2.55-2.88-6.16-2.88-7.2,0-3.59-7.21-149.38-10.32-211.9-.21-4.33,1.31-8.44,4.3-11.58,2.99-3.14,7.02-4.87,11.35-4.87h13.91c-3.16,3.37-4.82,7.75-4.66,12.38l.74,21.58c-2.47.81-7.39,3.83-7.39,14.91,0,13.27,5.28,146.8,5.64,153.59.33,6.16,4.03,8.86,7.89,9.46l.61,17.78c.06,1.81.38,3.56.94,5.2-1.69.89-5.92,2.71-12.48,3.03ZM145.19,241.68c-2.21-.48-5.01-2.06-5.27-7.01-.36-6.79-5.63-140.21-5.63-153.46,0-8.46,3.06-11.28,4.95-12.22l5.95,172.69ZM158.47,274.68c-2.97-.29-5.45-1.82-7.37-4.55-1.64-2.32-2.56-5.14-2.66-8.17l-7.49-217.34c-.14-4.02,1.32-7.82,4.11-10.71,2.79-2.89,6.54-4.48,10.56-4.48h13.13c-1.13,1.36-1.9,3.1-1.9,5.3,0,1.53.16,12.66.42,29.49-2.14.51-8,3.03-8,15.3s2.7,149.84,3.08,157.01c.35,6.73,3.45,11.36,7.79,11.79.11,8.07.18,13.37.18,14.82,0,3.32.79,6.08,1.95,8.35-2.05,1.21-7.32,3.82-13.79,3.18ZM168.31,130.62c.68,43.01,1.42,90.17,1.78,115.13-2.84-.53-4.94-4.22-5.21-9.34-.37-7.15-3.07-144.97-3.07-156.87,0-9.49,3.73-12,5.5-12.66.27,17.16.62,39.66,1,63.75ZM172.85,263.15c0-5.8-1.06-73.15-2-132.57-.75-47.7-1.46-92.75-1.46-95.84,0-1.52.57-2.75,1.41-3.74-.86,1.88-1.3,4.02-1.26,6.31.4,25.28,1.45,79.48,2.38,127.31.97,50.29,1.81,93.72,1.81,98.36,0,3.04.79,6.34,2.07,9.44-1.65-2.29-2.94-5.31-2.94-9.28ZM187.77,282.3c-1.58,0-3.51-1.41-5.34-3.6l.19-.27c-.21-.15-.49-.34-.82-.56-.02-.02-.05-.03-.07-.05-2.96-3.93-5.47-9.78-5.47-14.84,0-4.66-.84-48.1-1.81-98.41-.92-47.83-1.97-102.03-2.38-127.3-.05-3.3,1-6.11,3.04-8.11,2.06-2.02,5.07-3.07,8.45-2.94l15.18.55c-1.07,1.39-1.81,3.24-1.81,5.66,0,1.47.14,13.12.35,30.6-.81-.51-1.83-.83-3.07-.56l-.24.05c-3.14.68-6.48,2.32-6.48,13.21,0,6.39,1.04,55.95,1.95,99.68.69,32.96,1.28,61.42,1.28,64.18,0,4.59,0,13.92,9.01,14.71.17,13.1.28,21.26.28,21.7v.28s.13.25.13.25c.02.04.11.22.26.49-1.48,1.51-5.84,5.26-12.62,5.26ZM202.53,275.68c-.13-9.67-3.07-236.42-3.07-243.24,0-2.54,1.07-4.14,2.3-5.14-.52,1.31-.78,2.73-.76,4.16l4.49,248.1c-1.58-1.44-2.63-3.24-2.97-3.87ZM219.3,288.63c-2.02.69-3.8.6-5.45-.27-3.74-1.97-5.52-7.35-5.8-8.28l-4.5-248.67c-.04-2.34.86-4.52,2.55-6.14,1.69-1.62,3.9-2.44,6.24-2.3l20.85,1.11c-1.75,1.51-3.22,3.27-3.45,5.05-.11.87-.09,13.39.03,32.51-.74-.29-1.66-.48-2.8-.48-4.39,0-6.82,3.66-6.82,6.2l1.85,184.12c0,4.62,2.32,7.5,6.04,7.5,1.41,0,2.52-.38,3.39-.93.06,5.83.1,11.03.15,15.45.02,2.55.48,5.04,1.31,7.36-1.64,1.46-6.37,5.29-13.57,7.76ZM231.83,284.97c.85-.62,1.55-1.18,2.1-1.65.84,1.65,1.88,3.19,3.12,4.58,1.08,1.21,2.11,2.07,3.08,2.61-3.52-.32-6.93-3.91-8.31-5.54ZM245.3,290.43c-3.82-2.67-6.12-7.16-6.17-12.01l-2.29-247.29c-.03-3.25,1.32-6.38,3.7-8.59,2.38-2.21,5.6-3.33,8.84-3.06l23.93,1.98c-4.42,3.26-7.1,8.49-7.08,14.05.22,56.9.93,243.04.93,249.23,0,.47.03.93.08,1.38-2.23,1.53-9.74,6.33-16.16,6.33-1.94,0-3.89-.67-5.79-2ZM262.78,291.86c2.14-1.06,3.94-2.17,5.14-2.96,1.22,3.3,3.8,6.07,6.92,8.02-5.56,1.14-10.09-2.9-12.07-5.06ZM285.13,297.62c-6.34-.2-8.22-9.34-8.41-10.38V27.9c0-3.43,1.49-6.69,4.09-8.93,2.6-2.24,6.04-3.24,9.43-2.73l18.43,2.73c-1.89,2.39-2.96,5.39-2.97,8.47l-1.26,258.45c0,1.95.2,3.86.6,5.72-.9.45-12.7,6.25-19.91,6ZM304.27,303.7c-2.34-.43-4.93-3.83-6.36-6.12,3.63-1.32,6.65-2.73,7.85-3.32,1.14,3.47,2.99,6.65,5.44,9.32-1.94.28-4.7.53-6.94.12ZM306.98,285.91l1.26-258.45c.01-3.05,1.29-5.99,3.49-8.08.86-.82,1.86-1.74,2.9-2.68-1.47,4.62-1.99,11.33-1.99,21.66v246.39c.01.63.32,12.65,3.65,20-5.87-4.29-9.35-11.32-9.31-18.84ZM342.33,313.49c-1.8.33-5.4-3.19-7.87-6.29,4.73-1.7,8.4-3.73,8.73-3.92l-1.24-2.21c-.15.08-13.18,7.31-21.36,5.72-4.11-4.03-5.3-17.19-5.4-22.07V38.36c0-20.05,2.15-24.76,6.97-27.74,3.53-2.18,19.08.95,29.18,3.68-1.82,2.53-2.91,5.51-3.06,8.65-.01.24-.02.48-.02.73-.2,40.55-1.19,244.48-1.2,276.64,0,3.19,1.32,6.28,3.61,8.49.49.47,1,.95,1.53,1.44-2.61,1.02-7.3,2.77-9.87,3.24ZM379.11,319.31c-1.7-.67-2.92-1.96-3.7-3.91,4.81-2.4,9.14-5.43,9.97-6.01l-1.47-2.07c-3.92,2.79-15.04,9.74-19.41,8.46-1.36-.4-3.12-1.39-5.18-2.9-1.44-3.91-2-9.4-2.06-10.02.04-5.4,1.98-270.14,1.98-282.29,0-3.04.25-5.7.73-7.91.67-3.07,3.67-5.16,6.81-4.75l31.23,4.05c-.38.82-.6,1.72-.63,2.66-1.53,47.74-9.07,286.28-6.7,294.42.55,1.88,1.26,4.58,1.98,7.77-2.35,1.22-9,4.29-13.55,2.5ZM393.82,374.62c.51-7.43,1.84-15.85,3.4-21.45,3.24-11.67-1.6-34.33-4.61-44.68-1.9-6.51,3.37-187.74,6.78-293.8.05-1.59.88-3.06,2.22-3.93,1.25-.81,3.03-1.9,5.22-3.09-.75,26.25-8.21,288.02-6.3,297.8.18.93.38,1.93.59,2.98,2.05,10.23,5.15,25.68,3.68,38.07-.6,5.08-1.71,11.56-2.77,17.83-1.75,10.29-3.41,20.07-3.35,25.52-1.62-.64-3.05-1.33-3.97-1.92-.48-.31-1.57-3.3-.89-13.33ZM434.78,325.87h-.13l-3.75.97c-5.37,1.38-9.54,5.54-10.91,10.85-4.04,15.75-4.89,45.94-4.98,49.71-.76.8-3.12,3.19-5.42,4.47-1.4.78-5.29-.03-8.88-1.25-.27-5.01,1.54-15.63,3.29-25.93,1.07-6.29,2.18-12.8,2.79-17.93,1.51-12.71-1.62-28.36-3.7-38.71-.21-1.05-.41-2.04-.59-2.97-1.89-9.64,5.94-283.72,6.37-298.49,2.82-1.43,6.13-2.92,9.77-4.17,9.07-3.11,39,10.9,47.96,15.27,1.87.91,3.19,2.66,3.6,4.66-.71-.19-1.5-.28-2.28-.16-.46-.08-1.14-.17-1.93-.22-.19-2.04-1.6-3.79-4.18-5.22-4.3-2.37-9.33-2.49-13.79-.31-4.48,2.19-7.63,6.42-8.42,11.32-.73,4.55-1.1,10.07-1.1,16.41,0,12.38,1.98,21.47,5.9,27.03,3.27,4.64,7.04,5.59,8.65,5.99h.05c.22.07.44.09.68.09,1.71,0,3.72-1.37,5.19-2.61,3.39-2.85,6.7-7.41,6.46-10.6-.22-3.05,1.03-5.47,2.62-8.53.36-.69.72-1.39,1.09-2.14l-6.14,225.9-7.81-.47-5.51,15.12,2.37,12.31,2.5,2.1c-.74,1.48-9.03,17.49-19.76,17.49ZM440.53,326.62c2.15-.94,4.13-2.34,5.92-3.95l-.38,26.39c-1.85-.7-4.66-1.74-6.21-2.2l.67-20.24ZM448.07,349.37l.41-28.7c4.05-4.32,6.78-9.28,7.65-10.96l1.35,1.13-.63,35.25-8.77,3.27ZM458.53,309.14l-4.67-3.93-2.13-11.08,4.81-13.21,5.27.32-3.89,13.83,1.28,9.87,2.3,1.92-2.99,2.27ZM463.16,305.65l-1.79-1.49h2.91l-1.12,1.49ZM460.85,302.17l-.9-6.95,1.95-6.94v.33h8.23l-4.15,9.05,2.01,4.5h-7.14ZM471.46,305.07l-2.79-6.26,10.65.95,1.4,6.03-9.26-.73ZM482.21,303.44l-1.06-4.55,2.26-7.24h6.12v11.79h-7.33ZM500.4,249.83c12.89,0,21.53,1.38,23.38,2.45-1.86,1.08-10.49,2.45-23.38,2.45s-21.53-1.38-23.38-2.45c1.86-1.08,10.49-2.45,23.38-2.45ZM504.7,378.2c0,.9-.74,1.64-1.64,1.64h-6.5c-.9,0-1.64-.73-1.64-1.64v-58.33h9.78v58.33ZM508.07,316.13c0,.7-.46,1.29-1.09,1.5v-.05h-14.34v.05c-.63-.21-1.09-.8-1.09-1.5v-35.83c0-.19.15-.34.34-.34h15.83c.19,0,.34.15.34.34v35.83ZM504.8,274.65c.78,1.27,1.34,2.2,1.38,3.3h-13.01c.2-1.03.7-1.83,1.35-2.84,1.27-1.99,2.98-4.69,3.15-10.77.9.01,1.82.02,2.74.02.4,0,.8,0,1.19,0,.19,5.37,1.92,8.19,3.21,10.29ZM500.4,262.35c-13.58,0-22.43-1.53-23.62-2.62v-5.37c1.2.48,3.1.94,6.07,1.36,4.7.66,10.93,1.02,17.55,1.02s12.86-.36,17.55-1.02c2.97-.42,4.86-.88,6.07-1.36v5.37c-1.19,1.1-10.05,2.62-23.62,2.62Z"/><path class="cls-1" d="M341.26,58.48c-1.67-1.22-3.77-1.57-5.74-.94-2.68.85-4.49,3.31-4.49,6.13v209.04c0,2.03.93,3.9,2.55,5.13,1.14.86,2.48,1.31,3.86,1.31.59,0,1.18-.08,1.76-.25h0c2.76-.78,4.68-3.32,4.68-6.19V63.67c0-2.07-.96-3.96-2.63-5.19ZM341.24,272.71c0,1.68-1.13,3.18-2.75,3.64-1.15.32-2.36.1-3.31-.62-.95-.72-1.5-1.82-1.5-3.01V63.67c0-1.65,1.06-3.1,2.64-3.6.38-.12.77-.18,1.15-.18.79,0,1.56.25,2.22.73.98.72,1.55,1.83,1.55,3.05v209.04Z"/><path class="cls-1" d="M300.7,58.52c-1.68-1.24-3.79-1.59-5.78-.97-2.68.83-4.48,3.24-4.48,6v204c0,1.96.9,3.77,2.48,4.97,1.15.87,2.51,1.33,3.91,1.33.58,0,1.17-.08,1.76-.24,2.75-.76,4.68-3.25,4.68-6.06V63.55c0-2-.93-3.83-2.56-5.03ZM300.64,267.55c0,1.63-1.13,3.09-2.76,3.53h0c-1.18.33-2.42.09-3.39-.65-.92-.7-1.45-1.75-1.45-2.89V63.55c0-1.6,1.06-3.01,2.64-3.5.39-.12.78-.18,1.17-.18.81,0,1.61.26,2.29.76.95.7,1.5,1.77,1.5,2.92v204Z"/><path class="cls-1" d="M262.86,58.57c-1.66-1.23-3.84-1.61-5.84-1.01-2.68.8-4.48,3.15-4.48,5.84v197.64c0,1.86.87,3.6,2.39,4.77,1.16.89,2.55,1.35,3.98,1.35.58,0,1.17-.08,1.74-.23,2.75-.73,4.67-3.16,4.67-5.89V63.39c0-1.9-.9-3.66-2.47-4.83ZM262.75,261.04c0,1.57-1.14,2.97-2.76,3.4-1.23.33-2.5.08-3.49-.68-.88-.67-1.38-1.67-1.38-2.72V63.39c0-1.54,1.06-2.89,2.64-3.37.39-.12.78-.17,1.18-.17.86,0,1.7.27,2.39.78.91.67,1.43,1.68,1.43,2.76v197.64Z"/><path class="cls-1" d="M434.62,56.01c-1.65-1.22-3.7-1.57-5.64-.96-2.7.85-4.54,3.4-4.58,6.33l-3.15,219.28c-.03,2.19.92,4.19,2.61,5.49,1.13.87,2.46,1.32,3.83,1.32.57,0,1.14-.08,1.7-.24,2.77-.78,4.74-3.4,4.78-6.39l3.15-219.28c.03-2.2-.98-4.28-2.7-5.55ZM431.45,280.81c-.03,1.79-1.18,3.36-2.8,3.81h0c-1.09.3-2.23.08-3.14-.62-1.01-.77-1.57-1.98-1.55-3.3l3.15-219.28c.03-1.76,1.11-3.28,2.69-3.78.35-.11.71-.17,1.07-.17.75,0,1.5.24,2.13.72,1.04.77,1.62,1.99,1.6,3.34l-3.15,219.28Z"/><path class="cls-1" d="M386.34,56.03c-1.65-1.23-3.71-1.58-5.66-.97-2.7.85-4.54,3.36-4.58,6.27l-3.12,217.01c-.03,2.15.91,4.13,2.58,5.42,1.13.87,2.48,1.33,3.85,1.33.56,0,1.13-.08,1.69-.23,2.77-.77,4.74-3.37,4.78-6.33l3.12-217.01c.03-2.16-.97-4.21-2.67-5.48ZM383.19,278.48c-.03,1.77-1.18,3.32-2.8,3.77-1.1.31-2.26.08-3.17-.63-.99-.77-1.55-1.95-1.53-3.24l3.12-217.01c.02-1.74,1.1-3.24,2.69-3.73.36-.11.72-.17,1.08-.17.77,0,1.52.25,2.16.73,1.02.76,1.6,1.96,1.58,3.28l-3.12,217.01Z"/></g></svg>