<?xml version="1.0" encoding="UTF-8"?><svg id="Calque_2" xmlns="http://www.w3.org/2000/svg" viewBox="0 0 562.13 420.49"><defs><style>.cls-1{stroke-width:0px;}</style></defs><g id="Calque_2-2"><path class="cls-1" d="M561.73,46.44l-6.02-8.19,2.03-8.96c.18-.81-.15-1.66-.84-2.12L517.47.35c-.49-.33-1.1-.44-1.67-.28L201.82,85.78c-.78.21-1.36.87-1.47,1.67l-3.15,21.82c-.12.86.31,1.7,1.08,2.09l12.51,6.42L.5,358.76c-.53.61-.65,1.48-.3,2.21l.2.41c.08.16.18.31.29.45l18.96,21.96-16.36,21.79c-.37.49-.49,1.12-.34,1.72l2.45,9.64c.23.89,1.03,1.52,1.95,1.53l318.02,2.02h.01c.69,0,1.34-.36,1.71-.94L561.81,48.72c.45-.71.41-1.61-.08-2.28ZM551.63,37.9l-11.32,17.42-42.88-24.23,19.37-26.3,36.68,24.94-1.85,8.16ZM204.17,89.34L511.24,5.52l-18.01,24.44L201.65,106.81l2.53-17.48ZM198.04,138.55l2.49-.53L9.78,358.47h-3.65s191.91-219.93,191.91-219.93ZM269.33,358.07h-5.78S446.92,85.58,446.92,85.58l12.51-2.66-190.1,275.15ZM149.25,346.58l171.62-231.64,1.27,8.38-165.22,223.24-7.68.02ZM326.29,124.54l102.38-19.09-162.09,240.87-104.59.23,164.31-222.01ZM431.83,100.74l-106.02,19.77-1.35-8.87,116.75-24.85-9.38,13.94ZM143.59,347.41c-.46.62-.53,1.44-.18,2.12.34.68,1.04,1.11,1.81,1.11h0l118.61-.26-5.19,7.71-243.51.38,6.67-7.71,113.07-.46c.64,0,1.23-.3,1.62-.81l175.59-235.2,5.02-1.07-173.52,234.2ZM294.68,130.82l-160.82,215.42-92.11.38c15.65-19.3,113.63-135,167.22-198.15l85.71-17.64ZM205.38,146.43c-39.29,46.3-159.34,187.87-168.75,200.21l-11.3.05,178.68-206.49,1.37,6.23ZM298.33,125.93l-89.26,18.37-1.7-7.74,98.72-21.01-7.75,10.38ZM269.46,362.12l24.43,28.29-262.82.41-24.43-28.29,262.82-.41ZM298.11,389.1l-25.16-29.14L490.08,45.69l28.08,15.17-220.04,328.25ZM462.78,78.06l-140.08,29.81s-.04-.02-.07-.02c-.64-.16-1.3,0-1.79.42l-118.36,25.19,16.76-19.21L484.7,46.35l-21.91,31.72ZM28.62,394.17c.38.45.94.7,1.53.7h0l268.16-.41c.67,0,1.3-.34,1.68-.9L522.76,61.26c.32-.47.42-1.06.28-1.61-.14-.55-.5-1.03-1-1.3l-31.64-17.09c-.45-.24-.97-.31-1.47-.18L217.63,110.48c-.4.1-.75.32-1.02.63l-3.07,3.52-8.7-4.47L494.16,33.9l43.95,24.83-221.71,346.04H8.97l13.39-17.85,6.25,7.24ZM7.53,408.83h308.91l5.13,7.58-312.61-1.98-1.42-5.6ZM325.34,414.76l-5.4-7.99L542.68,59.12h0s10.95-16.86,10.95-16.86l4.02,5.46-232.31,367.04Z"/></g></svg>